#format: frame checksums
#version: 2
#hash: MD5
#tb 0: 1001/30000
#media_type 0: video
#codec_id 0: rawvideo
#dimensions 0: 34x8
#sar 0: 1/1
#stream#, dts,        pts, duration,     size, hash
0,          0,          0,        1,      408, c14f2ba5b4582c9d3a488976814691b3
0,          1,          1,        1,      408, 4387a4dce19007b7efb810b5a4069749
0,          2,          2,        1,      408, ecfe868d28f4861a5612edfd57447a02
0,          3,          3,        1,      408, 5cba54f568534d29169ac31c8fa505e0
0,          4,          4,        1,      408, fe9aab7b3378b9fc3e373ee626b887db
0,          5,          5,        1,      408, fce72dfc7f9c0cb50ff73761b4d82c1f
0,          6,          6,        1,      408, d4d98f42b1377e0f0ffaa66aa81d40c3
0,          7,          7,        1,      408, 65c027646dc95a749ce2d7ad0a6beccc
0,          8,          8,        1,      408, 317b283a0d907270f671272771022e69
0,          9,          9,        1,      408, d3e2c008584608502f3e24c5c5f64028
